<svg width="66" height="20" viewBox="0 0 66 20" fill="none" xmlns="http://www.w3.org/2000/svg">
<path fill-rule="evenodd" clip-rule="evenodd" d="M40.8418 15.325C37.0235 18.1089 31.4711 19.5955 26.6968 19.5955C20.0029 19.5955 13.9759 17.1515 9.41689 13.0851C9.05876 12.7653 9.37937 12.3298 9.80926 12.5781C14.7296 15.4056 20.8133 17.1053 27.0971 17.1053C31.3354 17.1053 35.9978 16.2395 40.2848 14.4429C40.9326 14.1712 41.4738 14.8615 40.8405 15.3256L40.8418 15.325ZM42.4323 13.529C41.9452 12.9115 39.2065 13.2378 37.9675 13.3821C37.5922 13.4276 37.535 13.1046 37.8727 12.8725C40.0584 11.3528 43.6463 11.7916 44.0656 12.3005C44.485 12.8095 43.957 16.363 41.9024 18.0582C41.5864 18.3182 41.2862 18.1798 41.4264 17.8346C41.8872 16.6971 42.9221 14.1478 42.4323 13.5284" fill="#FF9900"/>
<path fill-rule="evenodd" clip-rule="evenodd" d="M38.0536 2.14565V0.668851C38.0523 0.619404 38.0611 0.570201 38.0797 0.524248C38.0982 0.478296 38.126 0.436557 38.1615 0.40158C38.1969 0.366603 38.2392 0.339121 38.2857 0.320813C38.3323 0.302506 38.3821 0.293757 38.4322 0.2951H45.1287C45.3434 0.2951 45.5158 0.447851 45.5158 0.668851V1.9331C45.5132 2.145 45.3315 2.42255 45.0115 2.8613L41.5421 7.7532C42.8325 7.722 44.1926 7.9118 45.3618 8.56245C45.6251 8.70935 45.6909 8.9245 45.7173 9.13705V10.7133C45.7173 10.9278 45.4763 11.18 45.2235 11.05C43.1629 9.984 40.4263 9.867 38.1484 11.0611C37.916 11.1859 37.6725 10.9363 37.6725 10.7218V9.2248C37.6725 8.9843 37.6751 8.5748 37.9187 8.20885L41.9391 2.51615H38.4467C38.232 2.51615 38.0595 2.36665 38.0595 2.14565H38.0536ZM13.6235 11.3614H11.5867C11.3918 11.3471 11.2377 11.2028 11.2226 11.0188V0.694201C11.2226 0.487501 11.3977 0.323701 11.615 0.323701H13.5149C13.7124 0.332151 13.8704 0.4823 13.8849 0.6682V2.0176H13.9224C14.4182 0.71305 15.3497 0.104651 16.6045 0.104651C17.8797 0.104651 18.6763 0.71305 19.2497 2.0176C19.7434 0.71305 20.8626 0.104651 22.064 0.104651C22.9179 0.104651 23.8521 0.452401 24.4222 1.2337C25.0673 2.1021 24.9357 3.3644 24.9357 4.4707L24.9311 10.9876C24.9311 11.1943 24.756 11.3614 24.5387 11.3614H22.4979C22.3004 11.3471 22.1312 11.1859 22.1312 10.9876V5.5081C22.1312 5.0726 22.1707 3.9858 22.0739 3.57305C21.9225 2.88015 21.4663 2.6845 20.8757 2.6845C20.382 2.6845 19.8672 3.0095 19.6578 3.5308C19.4485 4.0521 19.4689 4.9231 19.4689 5.50875V10.9818C19.4689 11.1885 19.2938 11.3555 19.0765 11.3555H17.0357C16.8296 11.3412 16.669 11.18 16.669 10.9818L16.6664 5.50875C16.6664 4.35695 16.8586 2.66175 15.4109 2.66175C13.9468 2.66175 14.0041 4.31405 14.0041 5.50875V10.9818C14.0041 11.1885 13.8289 11.3555 13.6117 11.3555L13.6235 11.3614ZM51.2815 0.1131C54.3046 0.1131 55.9412 2.6767 55.9412 5.9358C55.9412 9.08505 54.1328 11.583 51.2815 11.583C48.319 11.583 46.6962 9.0194 46.6962 5.8253C46.6962 2.61105 48.3328 0.1053 51.2815 0.1053V0.1131ZM51.2986 2.21325C49.7976 2.21325 49.7022 4.23345 49.7022 5.4925C49.7022 6.75155 49.6824 9.44775 51.2809 9.44775C52.8595 9.44775 52.9346 7.2748 52.9346 5.95075C52.9346 5.07975 52.8971 4.0378 52.6318 3.21165C52.4027 2.49275 51.9471 2.2126 51.2993 2.2126L51.2986 2.21325ZM59.8622 11.3614H57.8332C57.6357 11.3471 57.4666 11.1859 57.4666 10.9876L57.4639 0.660401C57.481 0.470601 57.6502 0.323701 57.8563 0.323701H59.7457C59.9234 0.332151 60.0696 0.451101 60.1098 0.612301V2.1918H60.1473C60.7174 0.78 61.5166 0.106601 62.9241 0.106601C63.8458 0.106601 64.7293 0.431601 65.3027 1.3234C65.8294 2.1489 65.8294 3.5386 65.8294 4.53765V11.0377C65.8063 11.2197 65.6371 11.3627 65.437 11.3627H63.3975C63.2112 11.3484 63.0565 11.2132 63.0367 11.0377V5.4301C63.0367 4.30105 63.1684 2.6481 61.7615 2.6481C61.2658 2.6481 60.8102 2.97635 60.5765 3.4736C60.2901 4.1041 60.2526 4.73265 60.2526 5.4288V10.9889C60.25 11.1956 60.0722 11.3627 59.8543 11.3627L59.8622 11.3614ZM32.7145 6.42265C32.7145 7.20655 32.7343 7.85265 32.3327 8.55595C32.0088 9.12145 31.4933 9.46985 30.9226 9.46985C30.1405 9.46985 29.6816 8.8816 29.6816 8.01255C29.6816 6.29785 31.2379 5.9865 32.7132 5.9865V6.422L32.7145 6.42265ZM34.7672 11.3256C34.6323 11.4446 34.4381 11.453 34.2866 11.3737C33.6105 10.8193 33.4874 10.5612 33.1174 10.0328C31.9996 11.1586 31.2063 11.4953 29.7586 11.4953C28.0424 11.4953 26.7092 10.4514 26.7092 8.3603C26.7092 6.7275 27.6032 5.616 28.8817 5.0726C29.9877 4.5916 31.5322 4.5071 32.7132 4.37385V4.11385C32.7132 3.63545 32.7508 3.06995 32.4631 2.65655C32.2168 2.28605 31.7409 2.1333 31.3195 2.1333C30.5427 2.1333 29.8515 2.52655 29.6829 3.3423C29.6487 3.5243 29.5137 3.70175 29.3274 3.7102L27.3524 3.5009C27.1865 3.46385 27.0002 3.3319 27.0496 3.0784C27.5025 0.7124 29.6698 0 31.6053 0C32.5967 0 33.8923 0.260001 34.6744 1.001C35.6659 1.9149 35.5711 3.1343 35.5711 4.4616V7.59655C35.5711 8.53905 35.9661 8.9518 36.3393 9.46205C36.4684 9.64405 36.4973 9.86115 36.3308 9.997L34.7732 11.3386L34.7705 11.3321L34.7672 11.3256ZM6.004 6.42915C6.004 7.21305 6.02375 7.85915 5.62216 8.56245C5.29827 9.12795 4.78608 9.47635 4.21202 9.47635C3.42992 9.47635 2.97435 8.8881 2.97435 8.01905C2.97435 6.30435 4.53065 5.993 6.00268 5.993V6.4285L6.004 6.42915ZM8.05668 11.3321C7.92172 11.4511 7.72751 11.4595 7.5761 11.3802C6.89999 10.8258 6.7861 10.5677 6.4069 10.0393C5.28905 11.1651 4.49773 11.5018 3.04808 11.5018C1.3351 11.5024 0 10.4585 0 8.3681C0 6.7353 0.89665 5.6238 2.1725 5.0804C3.2785 4.5994 4.82295 4.5149 6.004 4.38165V4.12165C6.004 3.64325 6.04152 3.07775 5.75778 2.66435C5.50761 2.29385 5.03362 2.1411 4.61426 2.1411C3.83742 2.1411 3.1442 2.53435 2.96842 3.3501C2.93419 3.5321 2.79923 3.70955 2.61622 3.718L0.638583 3.5087C0.472683 3.47165 0.289667 3.3397 0.33575 3.0862C0.791316 0.720201 2.95592 0.00780068 4.89141 0.00780068C5.88286 0.00780068 7.17846 0.2678 7.96056 1.0088C8.95201 1.9227 8.85721 3.1421 8.85721 4.4694V7.60435C8.85721 8.54685 9.25221 8.9596 9.62549 9.46985C9.75715 9.65185 9.78612 9.86895 9.6189 10.0048L8.06524 11.3386L8.05865 11.3321" fill="#221F1F"/>
</svg>
