<svg width="13" height="13" viewBox="0 0 13 13" fill="none" xmlns="http://www.w3.org/2000/svg">
<path fill-rule="evenodd" clip-rule="evenodd" d="M1.83243 2.50601C2.94031 1.39815 4.47205 0.712158 6.16318 0.712158C7.85431 0.712158 9.38605 1.39815 10.4939 2.50601L10.1918 2.80816L10.4939 2.50601C11.6018 3.61389 12.2878 5.14563 12.2878 6.83677C12.2878 8.5279 11.6018 10.0596 10.4939 11.1675C9.38605 12.2754 7.85431 12.9614 6.16318 12.9614C4.47205 12.9614 2.94031 12.2754 1.83243 11.1675L2.13457 10.8654L1.83243 11.1675C0.724563 10.0596 0.0385742 8.5279 0.0385742 6.83677C0.0385742 5.14563 0.724564 3.6139 1.83243 2.50602L1.83243 2.50601ZM6.16318 1.56675C4.7078 1.56675 3.39089 2.15615 2.43672 3.11031C1.48256 4.06448 0.893171 5.38139 0.893171 6.83677C0.893171 8.29214 1.48257 9.60906 2.43672 10.5632C3.39089 11.5174 4.70781 12.1068 6.16318 12.1068C7.61856 12.1068 8.93547 11.5174 9.88963 10.5632C10.8438 9.60906 11.4332 8.29214 11.4332 6.83677C11.4332 5.38139 10.8438 4.06447 9.88963 3.1103C8.93548 2.15615 7.61856 1.56675 6.16318 1.56675Z" fill="#8C9196"/>
<path fill-rule="evenodd" clip-rule="evenodd" d="M1.83243 2.50601C2.94031 1.39815 4.47205 0.712158 6.16318 0.712158C7.85431 0.712158 9.38605 1.39815 10.4939 2.50601L10.1918 2.80816L10.4939 2.50601C11.6018 3.61389 12.2878 5.14563 12.2878 6.83677C12.2878 8.5279 11.6018 10.0596 10.4939 11.1675C9.38605 12.2754 7.85431 12.9614 6.16318 12.9614C4.47205 12.9614 2.94031 12.2754 1.83243 11.1675L2.13457 10.8654L1.83243 11.1675C0.724563 10.0596 0.0385742 8.5279 0.0385742 6.83677C0.0385742 5.14563 0.724564 3.6139 1.83243 2.50602L1.83243 2.50601ZM6.16318 1.56675C4.7078 1.56675 3.39089 2.15615 2.43672 3.11031C1.48256 4.06448 0.893171 5.38139 0.893171 6.83677C0.893171 8.29214 1.48257 9.60906 2.43672 10.5632C3.39089 11.5174 4.70781 12.1068 6.16318 12.1068C7.61856 12.1068 8.93547 11.5174 9.88963 10.5632C10.8438 9.60906 11.4332 8.29214 11.4332 6.83677C11.4332 5.38139 10.8438 4.06447 9.88963 3.1103C8.93548 2.15615 7.61856 1.56675 6.16318 1.56675Z" fill="black" fill-opacity="0.2"/>
<path fill-rule="evenodd" clip-rule="evenodd" d="M6.16309 3.13342C6.55641 3.13342 6.87526 3.45227 6.87526 3.84559C6.87526 4.2389 6.55641 4.55775 6.16309 4.55775C5.76978 4.55775 5.45093 4.2389 5.45093 3.84559C5.45093 3.45227 5.76978 3.13342 6.16309 3.13342Z" fill="#8C9196"/>
<path fill-rule="evenodd" clip-rule="evenodd" d="M6.16309 3.13342C6.55641 3.13342 6.87526 3.45227 6.87526 3.84559C6.87526 4.2389 6.55641 4.55775 6.16309 4.55775C5.76978 4.55775 5.45093 4.2389 5.45093 3.84559C5.45093 3.45227 5.76978 3.13342 6.16309 3.13342Z" fill="black" fill-opacity="0.2"/>
<path fill-rule="evenodd" clip-rule="evenodd" d="M5.30859 5.6972C5.30859 5.46121 5.4999 5.2699 5.73589 5.2699H6.30562C6.54161 5.2699 6.73292 5.46121 6.73292 5.6972V9.68531C6.73292 9.9213 6.54161 10.1126 6.30562 10.1126C6.06963 10.1126 5.87832 9.9213 5.87832 9.68531V6.12449H5.73589C5.4999 6.12449 5.30859 5.93319 5.30859 5.6972Z" fill="#8C9196"/>
<path fill-rule="evenodd" clip-rule="evenodd" d="M5.30859 5.6972C5.30859 5.46121 5.4999 5.2699 5.73589 5.2699H6.30562C6.54161 5.2699 6.73292 5.46121 6.73292 5.6972V9.68531C6.73292 9.9213 6.54161 10.1126 6.30562 10.1126C6.06963 10.1126 5.87832 9.9213 5.87832 9.68531V6.12449H5.73589C5.4999 6.12449 5.30859 5.93319 5.30859 5.6972Z" fill="black" fill-opacity="0.2"/>
<path fill-rule="evenodd" clip-rule="evenodd" d="M4.88135 9.68548C4.88135 9.44949 5.07266 9.25818 5.30865 9.25818H7.3027C7.53869 9.25818 7.73 9.44949 7.73 9.68548C7.73 9.92147 7.53869 10.1128 7.3027 10.1128H5.30865C5.07266 10.1128 4.88135 9.92147 4.88135 9.68548Z" fill="#8C9196"/>
<path fill-rule="evenodd" clip-rule="evenodd" d="M4.88135 9.68548C4.88135 9.44949 5.07266 9.25818 5.30865 9.25818H7.3027C7.53869 9.25818 7.73 9.44949 7.73 9.68548C7.73 9.92147 7.53869 10.1128 7.3027 10.1128H5.30865C5.07266 10.1128 4.88135 9.92147 4.88135 9.68548Z" fill="black" fill-opacity="0.2"/>
</svg>
