<svg width="100%" height="15" viewBox="0 0 75 15" fill="none" xmlns="http://www.w3.org/2000/svg" preserveAspectRatio="none">
<path d="M5.53975 0.326782L3.84641 3.96508L0 4.55219L2.78639 7.41965L2.12032 11.4071L5.53975 9.48819L8.9599 11.4071L8.29874 7.41965L11.0803 4.55219L7.25517 3.96508L5.53975 0.326782Z" fill="#0B76E0"/>
<path d="M19.3547 0.326782L17.6614 3.96508L13.8149 4.55219L16.6013 7.41965L15.9353 11.4071L19.3547 9.48819L22.7748 11.4071L22.1137 7.41965L24.8952 4.55219L21.0701 3.96508L19.3547 0.326782Z" fill="#0B76E0"/>
<path d="M33.1696 0.326782L31.4763 3.96508L27.6299 4.55219L30.4163 7.41965L29.7502 11.4071L33.1696 9.48819L36.5898 11.4071L35.9286 7.41965L38.7102 4.55219L34.8851 3.96508L33.1696 0.326782Z" fill="#0B76E0"/>
<path d="M46.9848 0.326782L45.2915 3.96508L41.4451 4.55219L44.2315 7.41965L43.5654 11.4071L46.9848 9.48819L50.405 11.4071L49.7438 7.41965L52.5254 4.55219L48.7002 3.96508L46.9848 0.326782Z" fill="#0B76E0"/>
<path fill-rule="evenodd" clip-rule="evenodd" d="M60.7988 0.326784C60.946 0.326387 61.0806 0.413681 61.146 0.551943L62.6517 3.73375L66.0095 4.24725C66.1549 4.26949 66.2757 4.37625 66.3213 4.52276C66.3668 4.66927 66.3292 4.83019 66.2242 4.93801L63.782 7.44643L64.3621 10.932C64.3875 11.0846 64.3277 11.2391 64.2081 11.33C64.0885 11.4209 63.9299 11.4323 63.7995 11.3594L60.7998 9.68259L57.8008 11.3594C57.6703 11.4323 57.5116 11.4209 57.392 11.3298C57.2723 11.2388 57.2127 11.0842 57.2383 10.9315L57.8225 7.44642L55.3763 4.93825C55.2712 4.83044 55.2335 4.6694 55.279 4.52278C55.3246 4.37615 55.4456 4.26934 55.5911 4.24721L58.9672 3.73376L60.4527 0.553811C60.5174 0.415199 60.6516 0.32718 60.7988 0.326784ZM60.802 1.64875L59.5717 4.28258C59.5155 4.40281 59.4064 4.4862 59.2801 4.50542L56.4759 4.93187L58.5087 7.01616C58.6 7.10971 58.6413 7.24444 58.6192 7.37623L58.137 10.2527L60.618 8.8655C60.7316 8.80196 60.8679 8.80195 60.9816 8.86548L63.4644 10.2534L62.9855 7.37573C62.9636 7.24421 63.0049 7.10982 63.0958 7.01641L65.1258 4.93143L62.3398 4.50537C62.2142 4.48618 62.1057 4.40361 62.0493 4.28445L60.802 1.64875Z" fill="#0B76E0"/>
<path d="M60.7723 9.27525L60.8316 1.32092L59.291 4.05522L56.1506 4.61451L58.2245 7.4731L57.6912 10.891L60.7723 9.27525Z" fill="#0B76E0"/>
</svg>
